# xmcd
#
# Track frame offsets: 
#        150
#        7697
#        22790
#        44693
#        65109
#        79608
#        94880
#        113460
#        137432
#        151150
#        175290
#        191291
#        211037
#
# Disc length: 2901 seconds
#
# Revision: 0
# Processed by: cddbd v1.5.2PL0 Copyright (c) Steve Scherf et al.
# Submitted via: ExactAudioCopy v1.0b3
#
DISCID=920b530d
DTITLE=Rooster - Heavy Blues
DYEAR=2014
DGENRE=Blues
TTITLE0=Banja
TTITLE1=Piwniczne drzwi
TTITLE2=Póki muzyka gra
TTITLE3=Heavy Blues
TTITLE4=Mam to w zupie
TTITLE5=Po prostu wystarczy być
TTITLE6=Tylko poproś
TTITLE7=Są na tym świecie rzeczy
TTITLE8=Diabły trzy
TTITLE9=Rozhulantyna
TTITLE10=Wina - kłamstwo najtrudniejsze
TTITLE11=Zapominaj
TTITLE12=Pieśkowe sny
EXTD=
EXTT0=
EXTT1=
EXTT2=
EXTT3=
EXTT4=
EXTT5=
EXTT6=
EXTT7=
EXTT8=
EXTT9=
EXTT10=
EXTT11=
EXTT12=
PLAYORDER=
